<?xml version="1.0" encoding="UTF-8"?>
<!DOCTYPE svg PUBLIC "-//W3C//DTD SVG 1.1//EN" "http://www.w3.org/Graphics/SVG/1.1/DTD/svg11.dtd">
<svg xmlns="http://www.w3.org/2000/svg" version="1.1" width="2000px" height="1247px" style="shape-rendering:geometricPrecision; text-rendering:geometricPrecision; image-rendering:optimizeQuality; fill-rule:evenodd; clip-rule:evenodd" xmlns:xlink="http://www.w3.org/1999/xlink">
<g><path style="opacity:1" fill="#fefefe" d="M 960.5,-0.5 C 985.167,-0.5 1009.83,-0.5 1034.5,-0.5C 1098.69,2.03569 1161.35,13.5357 1222.5,34C 1276.04,52.6712 1322.21,82.5045 1361,123.5C 1398.68,167.538 1419.84,218.538 1424.5,276.5C 1348.66,320.182 1294.82,382.848 1263,464.5C 1241.14,523.51 1230.81,584.51 1232,647.5C 1231,648.167 1230,648.833 1229,649.5C 1207.66,618.822 1181.16,593.655 1149.5,574C 1137.33,566.747 1125,559.747 1112.5,553C 1139.11,550.258 1165.78,547.258 1192.5,544C 1210.44,537.063 1221.6,524.23 1226,505.5C 1229.09,467.358 1233.42,429.358 1239,391.5C 1243.62,367.562 1247.79,343.562 1251.5,319.5C 1251.55,312.94 1250.39,306.607 1248,300.5C 1243.17,290.841 1237.84,281.508 1232,272.5C 1226.46,266.643 1219.96,262.143 1212.5,259C 1186.33,250.123 1159.66,243.123 1132.5,238C 1104.57,202.672 1068.57,179.339 1024.5,168C 972.241,154.098 919.241,149.098 865.5,153C 859.13,154.436 854.963,158.269 853,164.5C 851.035,170.361 849.702,176.361 849,182.5C 847.314,209.514 845.481,236.514 843.5,263.5C 781.721,292.112 736.887,337.446 709,399.5C 687.742,456.473 688.409,513.14 711,569.5C 724.518,598.032 743.685,622.199 768.5,642C 784.999,655.498 802.332,667.831 820.5,679C 794.571,681.585 768.571,683.918 742.5,686C 719.232,691.935 705.732,706.768 702,730.5C 701.464,768.303 698.964,805.969 694.5,843.5C 680.228,844.797 667.562,840.964 656.5,832C 641.383,817.561 628.55,801.394 618,783.5C 606.333,764.167 594.667,744.833 583,725.5C 582.333,700.833 582.333,676.167 583,651.5C 659.087,582.565 685.754,497.899 663,397.5C 649.289,351.046 622.622,314.046 583,286.5C 582.921,251.813 582.254,217.146 581,182.5C 579.958,169.321 576.291,156.988 570,145.5C 560.933,135.051 549.433,129.551 535.5,129C 510.555,127.97 485.721,129.137 461,132.5C 459.605,132.22 458.438,131.553 457.5,130.5C 454.858,126.691 452.025,123.024 449,119.5C 448.042,117.801 447.542,115.967 447.5,114C 453,77.5 458.5,41 464,4.5C 469.422,3.1921 475.089,2.52543 481,2.5C 641.039,8.54575 800.872,7.54575 960.5,-0.5 Z"/></g>
<g><path style="opacity:1" fill="#fefefe" d="M 1001.5,277.5 C 1050.11,276.364 1098.11,281.197 1145.5,292C 1162.18,295.752 1178.51,300.585 1194.5,306.5C 1196.71,311.094 1199.05,315.594 1201.5,320C 1189.11,378.255 1180.77,437.088 1176.5,496.5C 1150.5,498.667 1124.5,500.5 1098.5,502C 1094.83,500.014 1091.83,497.347 1089.5,494C 1091.46,476.562 1091.96,459.062 1091,441.5C 1088.11,406.614 1069.61,385.447 1035.5,378C 1003,370.732 970.996,372.399 939.5,383C 899.355,400.455 884.855,430.288 896,472.5C 898.663,479.168 902.329,485.168 907,490.5C 920.089,504.935 934.922,517.102 951.5,527C 993.188,548.844 1035.19,570.178 1077.5,591C 1098.33,602.244 1118.66,614.244 1138.5,627C 1210.59,681.827 1229.09,751.327 1194,835.5C 1170.1,880.725 1134.6,913.558 1087.5,934C 1039.96,954.308 990.296,964.641 938.5,965C 870.841,967.101 806.174,954.268 744.5,926.5C 740.696,921.224 737.696,915.557 735.5,909.5C 745.095,852.217 750.595,794.551 752,736.5C 752.75,735.874 753.584,735.374 754.5,735C 782.153,732.882 809.82,731.049 837.5,729.5C 836.792,760.764 840.626,791.431 849,821.5C 855.948,842.115 869.448,856.615 889.5,865C 929.976,877.978 970.309,877.644 1010.5,864C 1054.03,844.091 1068.53,811.258 1054,765.5C 1048.73,755.218 1041.56,746.385 1032.5,739C 1009.56,722.746 985.555,708.079 960.5,695C 928.159,679.496 896.159,663.496 864.5,647C 831.872,628.719 802.372,606.219 776,579.5C 749.285,544.315 738.952,504.648 745,460.5C 749.881,424.416 764.214,392.749 788,365.5C 823.55,327.629 866.716,302.463 917.5,290C 945.232,283.037 973.232,278.87 1001.5,277.5 Z"/></g>
<g><path style="opacity:1" fill="#fefefe" d="M 1605.5,277.5 C 1666.94,274.458 1724.94,286.958 1779.5,315C 1834.94,347.112 1873.77,393.278 1896,453.5C 1917.11,514.124 1924.77,576.457 1919,640.5C 1913.97,714.26 1889.97,780.926 1847,840.5C 1789.01,912.761 1713.51,953.594 1620.5,963C 1563.86,969.559 1508.86,962.892 1455.5,943C 1382.27,910.765 1332.1,856.932 1305,781.5C 1285.64,722.301 1278.64,661.634 1284,599.5C 1289.22,517.773 1317.89,445.773 1370,383.5C 1421.65,327.251 1485.48,293.418 1561.5,282C 1576.28,280.097 1590.95,278.597 1605.5,277.5 Z M 1587.5,376.5 C 1640.49,375.411 1681.99,396.411 1712,439.5C 1736.31,478.352 1750.97,520.685 1756,566.5C 1763.99,623.298 1763.32,679.964 1754,736.5C 1746.38,776.249 1728.88,810.749 1701.5,840C 1674.08,864.649 1641.74,876.815 1604.5,876.5C 1554.92,875.633 1516.09,854.966 1488,814.5C 1464.77,777.819 1450.44,737.819 1445,694.5C 1436.87,638.527 1436.53,582.527 1444,526.5C 1449.39,487.734 1464.06,453.067 1488,422.5C 1514.62,392.94 1547.78,377.607 1587.5,376.5 Z"/></g>
<g><path style="opacity:1" fill="#fefefe" d="M 377.5,285.5 C 416.478,285.331 454.811,290.164 492.5,300C 592.83,331.417 634.33,399.25 617,503.5C 609.365,536.774 594.365,566.107 572,591.5C 546.133,619.381 516.3,641.881 482.5,659C 513.459,709.083 544.292,759.25 575,809.5C 588.549,831.066 604.383,850.899 622.5,869C 641.06,885.19 662.727,893.524 687.5,894C 690.372,896.537 692.872,899.37 695,902.5C 693.246,920.864 690.913,939.198 688,957.5C 647.083,961.796 606.083,965.796 565,969.5C 546.105,968.646 528.939,962.813 513.5,952C 495.089,937.259 479.922,919.759 468,899.5C 433.577,830.988 399.411,762.321 365.5,693.5C 341.176,692.5 316.842,692.167 292.5,692.5C 291.608,737.166 291.108,781.833 291,826.5C 291.286,839.128 293.286,851.461 297,863.5C 304.046,876.785 315.212,883.618 330.5,884C 342.051,885.198 353.551,886.364 365,887.5C 366.701,889.9 367.534,892.567 367.5,895.5C 364.591,915.86 361.591,936.193 358.5,956.5C 308.507,955.23 258.507,954.23 208.5,953.5C 164.462,954.259 120.462,955.926 76.5,958.5C 79.0905,935.442 82.0905,912.442 85.5,889.5C 105.618,888.393 123.951,882.227 140.5,871C 149.287,861.587 154.454,850.421 156,837.5C 156.907,831.527 157.573,825.527 158,819.5C 158.984,674.149 158.651,528.815 157,383.5C 154.409,363.442 142.909,354.775 122.5,357.5C 112.962,357.642 103.462,358.309 94,359.5C 92.8333,359.333 91.6667,359.167 90.5,359C 87.4128,356.089 85.4128,352.589 84.5,348.5C 87.3428,328.444 90.5094,308.444 94,288.5C 94.3333,288.167 94.6667,287.833 95,287.5C 189.286,291.414 283.452,290.747 377.5,285.5 Z M 316.5,369.5 C 340.729,369.19 364.729,371.356 388.5,376C 454.178,391.445 483.344,432.945 476,500.5C 474.48,534.374 460.647,561.874 434.5,583C 419.835,594.985 403.669,604.485 386,611.5C 355.865,607.837 325.699,604.504 295.5,601.5C 297.192,531.459 300.025,461.459 304,391.5C 304.191,385.538 305.525,379.872 308,374.5C 310.398,371.892 313.231,370.225 316.5,369.5 Z"/></g>
<g><path style="opacity:1" fill="#fdfdfe" d="M 886.5,715.5 C 903.722,723.11 920.722,731.277 937.5,740C 921.592,741.636 905.592,741.969 889.5,741C 888.874,740.25 888.374,739.416 888,738.5C 887.647,730.815 887.147,723.148 886.5,715.5 Z"/></g>
<g><path style="opacity:0.664" fill="#060c39" d="M 972.5,759.5 C 971.833,759.833 971.167,760.167 970.5,760.5C 969.733,759.828 969.066,758.995 968.5,758C 970.14,757.652 971.473,758.152 972.5,759.5 Z"/></g>
<g><path style="opacity:1" fill="#fbfbfc" d="M 972.5,759.5 C 984.961,766.454 996.461,774.787 1007,784.5C 1012.45,797.483 1009.12,807.483 997,814.5C 987.355,796.878 978.522,778.878 970.5,760.5C 971.167,760.167 971.833,759.833 972.5,759.5 Z"/></g>
<g><path style="opacity:0.349" fill="#000d44" d="M 1256.5,813.5 C 1255.83,813.833 1255.17,814.167 1254.5,814.5C 1254.35,811.147 1255.01,810.814 1256.5,813.5 Z"/></g>
<g><path style="opacity:1" fill="#fefefe" d="M 1256.5,813.5 C 1286.99,863.139 1317.49,912.805 1348,962.5C 1365.38,989.927 1384.72,1015.93 1406,1040.5C 1428.31,1065.82 1454.81,1085.32 1485.5,1099C 1506.81,1106.8 1528.81,1111.13 1551.5,1112C 1555.55,1117.26 1559.71,1122.42 1564,1127.5C 1560.17,1160.84 1556,1194.17 1551.5,1227.5C 1484.99,1233.52 1418.66,1239.85 1352.5,1246.5C 1336.17,1246.5 1319.83,1246.5 1303.5,1246.5C 1270.82,1239.83 1241.82,1225.66 1216.5,1204C 1187.05,1177.23 1162.89,1146.4 1144,1111.5C 1123.31,1071.45 1103.14,1031.11 1083.5,990.5C 1125.64,974.859 1162.81,951.526 1195,920.5C 1223.89,890.398 1243.72,855.065 1254.5,814.5C 1255.17,814.167 1255.83,813.833 1256.5,813.5 Z"/></g>
<g><path style="opacity:1" fill="#fefefe" d="M 734.5,977.5 C 763.658,989.441 793.658,998.774 824.5,1005.5C 826.618,1017.49 828.785,1029.49 831,1041.5C 838.695,1071.85 858.195,1088.69 889.5,1092C 912.369,1095.46 935.369,1097.46 958.5,1098C 961.879,1102.09 963.879,1106.76 964.5,1112C 959.259,1149.78 953.592,1187.44 947.5,1225C 858.536,1222.18 769.536,1220.35 680.5,1219.5C 597.709,1220.05 515.042,1223.38 432.5,1229.5C 437.565,1187.55 443.231,1145.72 449.5,1104C 475.365,1100.95 500.365,1094.62 524.5,1085C 546.061,1075.77 561.228,1060.27 570,1038.5C 572.176,1031.97 574.342,1025.47 576.5,1019C 618.574,1015.21 660.574,1010.87 702.5,1006C 717.09,1000.91 727.757,991.41 734.5,977.5 Z"/></g>
</svg>
